<svg width="32" height="32" fill="none" xmlns="http://www.w3.org/2000/svg"><path fill-rule="evenodd" clip-rule="evenodd" d="M20.99 12a.881.881 0 0 0 .685-.306l8.376-8.357-.03 4.745c0 .183.065.352.197.505.132.153.3.23.503.23h.518a.939.939 0 0 0 .487-.2.632.632 0 0 0 .244-.444V1.102c0-.02-.005-.03-.016-.03h-.015L32 .703a.783.783 0 0 0-.046-.275.595.595 0 0 0-.137-.215.75.75 0 0 0-.228-.153.636.636 0 0 0-.26-.061l-.364.03h-.031L23.959 0a.703.703 0 0 0-.517.214.71.71 0 0 0-.214.52v.49c.02.225.112.404.274.536a.844.844 0 0 0 .549.2h4.599l-8.345 8.356a.89.89 0 0 0-.305.69.89.89 0 0 0 .305.688.881.881 0 0 0 .685.306zm-9.977 8a.878.878 0 0 0-.684.306l-8.354 8.357.03-4.745a.757.757 0 0 0-.197-.505.632.632 0 0 0-.502-.23H.76a.935.935 0 0 0-.486.2.632.632 0 0 0-.243.444v7.071c0 .02.005.03.016.03H.06l-.06.369c0 .102.015.194.046.275.03.082.076.153.136.215.061.06.137.112.228.153.091.04.177.061.258.061l.365-.03h.03l6.988.03a.7.7 0 0 0 .516-.214.711.711 0 0 0 .213-.52v-.49a.749.749 0 0 0-.274-.536.84.84 0 0 0-.547-.2H3.372l8.324-8.356a.891.891 0 0 0 .304-.69.891.891 0 0 0-.304-.688.878.878 0 0 0-.683-.306zM31.97 30.898c0 .02-.005.03-.016.03h-.015l.061.368a.782.782 0 0 1-.046.275.594.594 0 0 1-.137.215.75.75 0 0 1-.228.153.636.636 0 0 1-.26.061l-.364-.03h-.031l-6.975.03a.703.703 0 0 1-.517-.214.71.71 0 0 1-.214-.52v-.49a.748.748 0 0 1 .274-.536.844.844 0 0 1 .549-.2h4.599l-8.345-8.356a.89.89 0 0 1-.305-.69.89.89 0 0 1 .305-.688.881.881 0 0 1 .685-.306c.274 0 .502.102.685.306l8.376 8.357-.03-4.745c0-.183.065-.352.197-.505.132-.153.3-.23.503-.23h.518a.94.94 0 0 1 .487.2c.142.112.223.26.244.444v7.071zM11.696 10.316L3.372 1.96H7.96a.84.84 0 0 0 .547-.199.749.749 0 0 0 .274-.536v-.49a.711.711 0 0 0-.213-.52A.7.7 0 0 0 8.051 0L1.063.03h-.03L.668 0A.633.633 0 0 0 .41.061a.747.747 0 0 0-.228.153.595.595 0 0 0-.136.215A.786.786 0 0 0 0 .704l.06.367H.047c-.01 0-.016.01-.016.031v7.071c.02.184.102.332.243.444a.935.935 0 0 0 .486.2h.547c.203 0 .37-.077.502-.23a.758.758 0 0 0 .197-.505l-.03-4.745 8.354 8.357c.182.204.41.306.684.306a.878.878 0 0 0 .683-.306.891.891 0 0 0 .304-.689.891.891 0 0 0-.304-.689z" fill="#fff"/></svg>